HIERARCHY
ROOT Hips
{
    OFFSET 0.000000 0.000000 0.000000
    CHANNELS 6 Xposition Yposition Zposition Zrotation Xrotation Yrotation
    JOINT Spine
    {
        OFFSET -0.000000 7.883683 0.000000
        CHANNELS 3 Zrotation Xrotation Yrotation
        JOINT Spine1
        {
            OFFSET -0.000000 24.776327 0.000000
            CHANNELS 3 Zrotation Xrotation Yrotation
            JOINT Neck
            {
                OFFSET -0.000000 24.674574 2.243143
                CHANNELS 3 Zrotation Xrotation Yrotation
                JOINT Head
                {
                    OFFSET -0.000000 13.459947 -1.922849
                    CHANNELS 3 Zrotation Xrotation Yrotation
                    End Site
                    {
                        OFFSET -0.000000 24.035618 0.000000
                    }
                }
            }
            JOINT LeftShoulder
            {
                OFFSET 3.810223 22.323311 -0.325006
                CHANNELS 3 Zrotation Xrotation Yrotation
                JOINT LeftArm
                {
                    OFFSET 12.560579 0.000000 0.000000
                    CHANNELS 3 Zrotation Xrotation Yrotation
                    JOINT LeftForeArm
                    {
                        OFFSET 28.806782 0.000000 0.000000
                        CHANNELS 3 Zrotation Xrotation Yrotation
                        JOINT LeftHand
                        {
                            OFFSET 23.813900 0.000000 0.000000
                            CHANNELS 3 Zrotation Xrotation Yrotation
                            End Site
                            {
                                OFFSET 14.421371 0.000000 0.000000
                            }
                        }
                    }
                }
            }
            JOINT RightShoulder
            {
                OFFSET -3.823061 22.323311 -0.325006
                CHANNELS 3 Zrotation Xrotation Yrotation
                JOINT RightArm
                {
                    OFFSET -12.560579 0.000000 0.000000
                    CHANNELS 3 Zrotation Xrotation Yrotation
                    JOINT RightForeArm
                    {
                        OFFSET -28.806782 0.000000 0.000000
                        CHANNELS 3 Zrotation Xrotation Yrotation
                        JOINT RightHand
                        {
                            OFFSET -23.813900 0.000000 0.000000
                            CHANNELS 3 Zrotation Xrotation Yrotation
                            End Site
                            {
                                OFFSET -14.421371 0.000000 0.000000
                            }
                        }
                    }
                }
            }
        }
    }
    JOINT LeftUpLeg
    {
        OFFSET 9.614247 0.000000 0.000000
        CHANNELS 3 Zrotation Xrotation Yrotation
        JOINT LeftLeg
        {
            OFFSET -0.000000 -41.464203 0.000000
            CHANNELS 3 Zrotation Xrotation Yrotation
            JOINT LeftFoot
            {
                OFFSET -0.000000 -34.276012 0.000000
                CHANNELS 3 Zrotation Xrotation Yrotation
                JOINT LeftToeBase
                {
                    OFFSET -0.000000 -6.249260 14.421371
                    CHANNELS 3 Zrotation Xrotation Yrotation
                    End Site
                    {
                        OFFSET -0.000000 0.000000 3.845699
                    }
                }
            }
        }
    }
    JOINT RightUpLeg
    {
        OFFSET -9.614247 0.000000 0.000000
        CHANNELS 3 Zrotation Xrotation Yrotation
        JOINT RightLeg
        {
            OFFSET -0.000000 -41.464203 0.000000
            CHANNELS 3 Zrotation Xrotation Yrotation
            JOINT RightFoot
            {
                OFFSET -0.000000 -34.276012 0.000000
                CHANNELS 3 Zrotation Xrotation Yrotation
                JOINT RightToeBase
                {
                    OFFSET -0.000000 -6.249260 14.421371
                    CHANNELS 3 Zrotation Xrotation Yrotation
                    End Site
                    {
                        OFFSET -0.000000 0.000000 3.845699
                    }
                }
            }
        }
    }
}
MOTION
Frames:    13
Frame Time:    0.004000
-15.721666    80.792412    -187.969116    0.097197    -1.087923    2.843922    1.409962    -4.600029    -0.376669    -1.356363    -2.585705    -0.463969    4.402287    17.721464    -1.680306    -0.180429    3.652323    -1.708175    14.589237    1.882217    6.248766    -23.732172    -0.918462    -4.352054    1.040849    0.543045    0.509341    -2.721972    0.628355    -3.781696    -14.826336    -1.645012    11.762815    18.095892    -1.309548    -2.696614    -1.395791    -0.065554    -1.556238    0.094812    -0.082067    3.859267    0.252052    7.330971    0.673473    -8.820448    -5.131444    -0.286045    8.238418    -1.358125    19.116688    0.000000    0.000000    0.000000    0.306707    7.877288    0.196662    4.716194    -7.835333    -0.014618    -5.447589    0.950923    -9.281488    0.000000    0.000000    0.000000    
-15.720560    80.793808    -187.970947    0.102426    -1.087544    2.844776    1.400707    -4.601835    -0.377808    -1.350410    -2.580690    -0.464541    4.394293    17.714270    -1.685447    -0.174725    3.653496    -1.713288    14.578006    1.882794    6.258370    -23.720928    -0.894145    -4.357867    1.038962    0.533550    0.494042    -2.717174    0.618700    -3.778118    -14.827003    -1.635094    11.765091    18.090315    -1.296495    -2.702332    -1.398636    -0.069043    -1.545940    0.072896    -0.085771    3.858135    0.243737    7.331097    0.662895    -8.814188    -5.139688    -0.260189    8.218367    -1.351965    19.114618    0.000000    0.000000    0.000000    0.300699    7.872476    0.199702    4.720161    -7.826581    0.004843    -5.476065    0.943616    -9.313037    0.000000    0.000000    0.000000    
-15.722680    80.793571    -187.973221    0.099623    -1.086162    2.847968    1.399704    -4.600581    -0.380000    -1.347401    -2.582760    -0.466667    4.379921    17.709064    -1.689252    -0.154713    3.658603    -1.715472    14.580469    1.882487    6.252896    -23.730490    -0.908453    -4.350520    1.051853    0.540044    0.494543    -2.730002    0.625778    -3.786140    -14.825545    -1.636744    11.756273    18.084808    -1.303155    -2.691426    -1.398695    -0.050324    -1.549199    0.096050    -0.066474    3.839161    0.248492    7.321262    0.668901    -8.814819    -5.123771    -0.281540    8.273198    -1.320974    19.114902    0.000000    0.000000    0.000000    0.305970    7.868898    0.193461    4.716500    -7.829060    -0.017821    -5.444314    0.949639    -9.284398    0.000000    0.000000    0.000000    
-15.724400    80.794121    -187.972748    0.101232    -1.096562    2.846758    1.393761    -4.588413    -0.380611    -1.347645    -2.585322    -0.466904    4.385730    17.714909    -1.696236    -0.152265    3.648892    -1.722119    14.583283    1.891456    6.254958    -23.728136    -0.917426    -4.356494    1.044396    0.536881    0.492804    -2.706393    0.622011    -3.793381    -14.825911    -1.644087    11.760020    18.085543    -1.300221    -2.695794    -1.391522    -0.045964    -1.555772    0.123350    -0.060461    3.841380    0.246751    7.331983    0.682349    -8.812866    -5.126269    -0.278419    8.253652    -1.320365    19.118683    0.000000    0.000000    0.000000    0.307291    7.881038    0.197861    4.715172    -7.829288    -0.014826    -5.451831    0.947344    -9.298638    0.000000    0.000000    0.000000    
-15.724048    80.793640    -187.972610    0.104218    -1.096854    2.843528    1.391795    -4.585217    -0.378479    -1.350433    -2.591465    -0.464761    4.377282    17.711359    -1.701478    -0.139871    3.659041    -1.726464    14.588288    1.886272    6.253179    -23.736616    -0.916739    -4.351871    1.057396    0.536258    0.489067    -2.734509    0.622595    -3.800022    -14.823804    -1.635665    11.752246    18.084379    -1.296938    -2.691786    -1.401020    -0.037893    -1.547636    0.139800    -0.052036    3.836219    0.244131    7.332891    0.681536    -8.814935    -5.122143    -0.288630    8.258997    -1.323582    19.123604    0.000000    0.000000    0.000000    0.300798    7.881607    0.197639    4.722198    -7.831667    -0.035033    -5.455482    0.944003    -9.266173    0.000000    0.000000    0.000000    
-15.725449    80.793488    -187.973541    0.101639    -1.103405    2.845805    1.377552    -4.571337    -0.381911    -1.297253    -2.627008    -0.466776    4.300503    17.783577    -1.702790    -0.107674    3.612792    -1.722405    14.481773    1.923419    6.212260    -23.665375    -0.909864    -4.314099    1.057021    0.501500    0.462879    -2.720930    0.587345    -3.790550    -14.867657    -1.594200    11.806952    18.097664    -1.356001    -2.729266    -1.417294    -0.031221    -1.553418    0.156894    -0.045936    3.851212    0.250455    7.336919    0.692070    -8.816459    -5.117556    -0.308176    8.251961    -1.325592    19.124268    0.000000    0.000000    0.000000    0.306871    7.885721    0.198815    4.718439    -7.829990    -0.036251    -5.446425    0.946580    -9.272713    0.000000    0.000000    0.000000    
-15.725958    80.793289    -187.974640    0.103331    -1.099647    2.846390    1.389925    -4.584264    -0.380026    -1.354958    -2.584069    -0.466256    4.376111    17.692120    -1.711846    -0.135407    3.672145    -1.737572    14.594558    1.882838    6.256433    -23.739790    -0.909584    -4.353416    1.061870    0.503804    0.476386    -2.707639    0.589711    -3.814605    -14.823271    -1.644432    11.747621    18.088974    -1.289340    -2.697556    -1.296603    -0.059095    -1.548572    -0.492332    -0.093431    3.776395    0.246226    7.329612    0.682157    -8.812222    -5.111514    -0.305194    8.214676    -1.361140    19.143482    0.000000    0.000000    0.000000    0.308371    7.881253    0.183484    4.710252    -7.828303    -0.022172    -5.464876    0.943741    -9.249163    0.000000    0.000000    0.000000    
-15.727798    80.792740    -187.974625    0.099690    -1.106229    2.846071    1.377467    -4.571349    -0.380231    -1.303696    -2.621062    -0.465053    4.304954    17.781464    -1.712654    -0.101354    3.606139    -1.732007    14.493077    1.914165    6.207683    -23.675207    -0.929994    -4.320713    1.063424    0.498393    0.476363    -2.703468    0.583921    -3.808683    -14.861950    -1.596521    11.795851    18.096006    -1.356338    -2.731340    -1.300532    -0.042611    -1.546988    -0.520931    -0.077225    3.761152    0.252659    7.335924    0.688609    -8.816726    -5.115619    -0.289588    8.252184    -1.330099    19.118824    0.000000    0.000000    0.000000    0.312140    7.888659    0.196341    4.713086    -7.829649    -0.010954    -5.444321    0.947273    -9.299447    0.000000    0.000000    0.000000    
-15.727408    80.794067    -187.975494    0.109546    -1.111268    2.843175    1.379040    -4.568514    -0.381211    -1.355296    -2.590582    -0.466986    4.376818    17.699270    -1.720689    -0.132502    3.661801    -1.746161    14.589504    1.892027    6.260936    -23.725782    -0.888945    -4.352854    1.060288    0.476802    0.452419    -2.740452    0.563429    -3.789874    -14.823003    -1.645440    11.748187    18.090498    -1.298520    -2.699173    -1.416799    -0.035250    -1.531264    0.191739    -0.047327    3.824934    0.241348    7.339476    0.686353    -8.814054    -5.110775    -0.299402    8.252842    -1.324034    19.135660    0.000000    0.000000    0.000000    0.303009    7.890750    0.184945    4.713030    -7.823228    -0.009900    -5.461911    0.942802    -9.283177    0.000000    0.000000    0.000000    
-15.728834    80.793045    -187.974030    0.104133    -1.116547    2.841407    1.365290    -4.557376    -0.381780    -1.295348    -2.630176    -0.465896    4.305674    17.785776    -1.719514    -0.114394    3.606500    -1.740426    14.486569    1.927231    6.212382    -23.672869    -0.918441    -4.319019    1.069965    0.479871    0.456645    -2.729496    0.566379    -3.807926    -14.861849    -1.595262    11.800805    18.090044    -1.371341    -2.737060    -1.422832    -0.019338    -1.528365    0.196924    -0.032723    3.824306    0.248751    7.346087    0.687475    -8.814119    -5.110369    -0.290956    8.224972    -1.361408    19.123039    0.000000    0.000000    0.000000    0.308929    7.899170    0.191615    4.710839    -7.829602    -0.010745    -5.448293    0.940631    -9.273851    0.000000    0.000000    0.000000    
-15.730132    80.793549    -187.976578    0.105725    -1.110733    2.841128    1.378176    -4.572312    -0.381198    -1.360101    -2.582343    -0.467026    4.390075    17.693460    -1.727410    -0.141981    3.656977    -1.754333    14.592216    1.889532    6.264306    -23.724909    -0.897600    -4.358296    1.065835    0.476231    0.455614    -2.736377    0.563191    -3.812882    -14.811808    -1.650750    11.742790    18.083109    -1.313637    -2.702102    -1.303540    -0.064174    -1.529045    -0.494485    -0.098099    3.757121    0.249143    7.333180    0.696882    -8.815626    -5.097745    -0.316967    8.220777    -1.366047    19.134871    0.000000    0.000000    0.000000    0.309113    7.888416    0.184129    4.709873    -7.824306    -0.001449    -5.437453    0.950079    -9.295762    0.000000    0.000000    0.000000    
-15.731833    80.793045    -187.977097    0.099013    -1.112301    2.841083    1.372062    -4.563056    -0.381554    -1.314825    -2.624805    -0.466447    4.317933    17.762609    -1.727606    -0.106245    3.634275    -1.748642    14.501439    1.923429    6.214053    -23.670017    -0.910644    -4.323267    1.072813    0.480091    0.456845    -2.764769    0.567890    -3.813793    -14.847739    -1.594795    11.793925    18.090961    -1.380381    -2.736021    -1.310000    -0.048894    -1.527605    -0.498425    -0.082567    3.747196    0.255737    7.331851    0.703195    -8.817158    -5.092363    -0.292503    8.272491    -1.338876    19.104847    0.000000    0.000000    0.000000    0.315626    7.892011    0.192507    4.714793    -7.830471    -0.023149    -5.460059    0.950192    -9.274063    0.000000    0.000000    0.000000    
-15.732954    80.794235    -187.977600    0.104069    -1.122651    2.834379    1.357681    -4.550250    -0.380257    -1.298672    -2.628037    -0.464035    4.297847    17.776552    -1.729402    -0.089866    3.614058    -1.748435    14.490092    1.927297    6.210436    -23.671516    -0.915794    -4.315465    1.075008    0.491793    0.447466    -2.749053    0.579117    -3.807086    -14.858744    -1.601856    11.804233    18.101170    -1.384994    -2.750968    -1.425467    -0.026548    -1.509968    0.154639    -0.040354    3.807358    0.253413    7.345141    0.709407    -8.821076    -5.097543    -0.304926    8.267263    -1.335401    19.118401    0.000000    0.000000    0.000000    0.313463    7.900251    0.186527    4.707484    -7.826227    -0.011077    -5.436555    0.948027    -9.273338    0.000000    0.000000    0.000000    
